                                                                        S      1
,,12HLöffel_rund,12HLöffel_rund,7Hunknown,7Hunknown,32,38,7,99,15,,1.,G      1
2,2HMM,1,0.08,15H20210906.182402,0.01,10000.,6Hdg9fdu,7Hunknown,11,0,15HG      2
20210906.123846;                                                        G      3
     186       1                                                00000000D      1
     186            -269       1       0                               0D      2
     186       2                                                00000000D      3
     186            -269       1       0                               0D      4
     186       3                                                00000000D      5
     186            -269       1       0                               0D      6
     186       4                                                00000000D      7
     186            -269       1       0                               0D      8
     514       5                                                00010000D      9
     514                       1       1                               0D     10
     514       6                                                00010000D     11
     514                       1       1                               0D     12
     514       7                                                00010000D     13
     514                       1       1                               0D     14
     514       8                                                00010000D     15
     514                       1       1                               0D     16
     510       9                                                00010000D     17
     510            -269       1       1                               0D     18
     510      10                                                00010000D     19
     510            -269       1       1                               0D     20
     510      11                                                00010000D     21
     510            -269       1       1                               0D     22
     510      12                                                00010000D     23
     510            -269       1       1                               0D     24
     510      13                                                00010000D     25
     510            -269       1       1                               0D     26
     510      14                                                00010000D     27
     510            -269       1       1                               0D     28
     510      15                                                00010000D     29
     510            -269       1       1                               0D     30
     510      16                                                00010000D     31
     510            -269       1       1                               0D     32
     510      17                                                00010000D     33
     510            -269       1       1                               0D     34
     510      18                                                00010000D     35
     510            -269       1       1                               0D     36
     510      19                                                00010000D     37
     510            -269       1       1                               0D     38
     510      20                                                00010000D     39
     510            -269       1       1                               0D     40
     510      21                                                00010000D     41
     510            -269       1       1                               0D     42
     510      22                                                00010000D     43
     510            -269       1       1                               0D     44
     510      23                                                00010000D     45
     510            -269       1       1                               0D     46
     510      24                                                00010000D     47
     510            -269       1       1                               0D     48
     510      25                                                00010000D     49
     510            -269       1       1                               0D     50
     510      26                                                00010000D     51
     510            -269       1       1                               0D     52
     510      27                                                00010000D     53
     510            -269       1       1                               0D     54
     510      28                                                00010000D     55
     510            -269       1       1                               0D     56
     510      29                                                00010000D     57
     510            -269       1       1                               0D     58
     510      30                                                00010000D     59
     510            -269       1       1                               0D     60
     508      31                                                00010000D     61
     508                       1       1                               0D     62
     508      32                                                00010000D     63
     508                       1       1                               0D     64
     508      33                                                00010000D     65
     508                       2       1                               0D     66
     508      35                                                00010000D     67
     508                       1       1                               0D     68
     508      36                                                00010000D     69
     508                       1       1                               0D     70
     508      37                                                00010000D     71
     508                       1       1                               0D     72
     508      38                                                00010000D     73
     508                       1       1                               0D     74
     508      39                                                00010000D     75
     508                       2       1                               0D     76
     508      41                                                00010000D     77
     508                       1       1                               0D     78
     508      42                                                00010000D     79
     508                       1       1                               0D     80
     508      43                                                00010000D     81
     508                       1       1                               0D     82
     508      44                                                00010000D     83
     508                       1       1                               0D     84
     508      45                                                00010000D     85
     508                       1       1                               0D     86
     508      46                                                00010000D     87
     508                       1       1                               0D     88
     508      47                                                00010000D     89
     508                       1       1                               0D     90
     508      48                                                00010000D     91
     508                       1       1                               0D     92
     508      49                                                00010000D     93
     508                       1       1                               0D     94
     508      50                                                00010000D     95
     508                       1       1                               0D     96
     508      51                                                00010000D     97
     508                       1       1                               0D     98
     508      52                                                00010000D     99
     508                       1       1                               0D    100
     508      53                                                00010000D    101
     508                       1       1                               0D    102
     508      54                                                00010000D    103
     508                       1       1                               0D    104
     508      55                                                00010000D    105
     508                       1       1                               0D    106
     508      56                                                00010000D    107
     508                       1       1                               0D    108
     508      57                                                00010000D    109
     508                       1       1                               0D    110
     126      58                                                00010000D    111
     126       0               4       0                               0D    112
     126      62                                                00010000D    113
     126       0               4       0                               0D    114
     126      66                                                00010000D    115
     126       0               5       0                               0D    116
     126      71                                                00010000D    117
     126       0               4       0                               0D    118
     126      75                                                00010000D    119
     126       0               3       0                               0D    120
     126      78                                                00010000D    121
     126       0               3       0                               0D    122
     126      81                                                00010000D    123
     126       0               2       0                               0D    124
     126      83                                                00010000D    125
     126       0               4       0                               0D    126
     126      87                                                00010000D    127
     126       0               3       0                               0D    128
     126      90                                                00010000D    129
     126       0               4       0                               0D    130
     126      94                                                00010000D    131
     126       0               4       0                               0D    132
     126      98                                                00010000D    133
     126       0               3       0                               0D    134
     126     101                                                00010000D    135
     126       0               3       0                               0D    136
     126     104                                                00010000D    137
     126       0               4       0                               0D    138
     126     108                                                00010000D    139
     126       0               4       0                               0D    140
     126     112                                                00010000D    141
     126       0               4       0                               0D    142
     126     116                                                00010000D    143
     126       0               4       0                               0D    144
     126     120                                                00010000D    145
     126       0               4       0                               0D    146
     126     124                                                00010000D    147
     126       0               4       0                               0D    148
     126     128                                                00010000D    149
     126       0               4       0                               0D    150
     126     132                                                00010000D    151
     126       0               2       0                               0D    152
     126     134                                                00010000D    153
     126       0              10       0                               0D    154
     126     144                                                00010000D    155
     126       0               2       0                               0D    156
     126     146                                                00010000D    157
     126       0              10       0                               0D    158
     126     156                                                00010000D    159
     126       0              10       0                               0D    160
     126     166                                                00010000D    161
     126       0               2       0                               0D    162
     126     168                                                00010000D    163
     126       0               9       0                               0D    164
     126     177                                                00010000D    165
     126       0               4       0                               0D    166
     126     181                                                00010000D    167
     126       0               3       0                               0D    168
     126     184                                                00010000D    169
     126       0               4       0                               0D    170
     126     188                                                00010000D    171
     126       0               2       0                               0D    172
     126     190                                                00010000D    173
     126       0               3       0                               0D    174
     126     193                                                00010000D    175
     126       0               7       0                               0D    176
     126     200                                                00010000D    177
     126       0               4       0                               0D    178
     126     204                                                00010000D    179
     126       0               3       0                               0D    180
     126     207                                                00010000D    181
     126       0               3       0                               0D    182
     126     210                                                00010000D    183
     126       0               3       0                               0D    184
     126     213                                                00010000D    185
     126       0               6       0                               0D    186
     126     219                                                00010000D    187
     126       0               2       0                               0D    188
     126     221                                                00010000D    189
     126       0               5       0                               0D    190
     126     226                                                00010000D    191
     126       0               7       0                               0D    192
     126     233                                                00010000D    193
     126       0               5       0                               0D    194
     126     238                                                00010000D    195
     126       0               8       0                               0D    196
     126     246                                                00010000D    197
     126       0               4       0                               0D    198
     126     250                                                00010000D    199
     126       0               3       0                               0D    200
     128     253                                                00010000D    201
     128       0    -269       8       0                               0D    202
     128     261                                                00010000D    203
     128       0    -269       5       0                               0D    204
     128     266                                                00010000D    205
     128       0    -269       6       0                               0D    206
     128     272                                                00010000D    207
     128       0    -269       7       0                               0D    208
     128     279                                                00010000D    209
     128       0    -269       7       0                               0D    210
     128     286                                                00010000D    211
     128       0    -269       7       0                               0D    212
     128     293                                                00010000D    213
     128       0    -269       8       0                               0D    214
     128     301                                                00010000D    215
     128       0    -269       5       0                               0D    216
     128     306                                                00010000D    217
     128       0    -269       6       0                               0D    218
     128     312                                                00010000D    219
     128       0    -269      12       0                               0D    220
     128     324                                                00010000D    221
     128       0    -269      11       0                               0D    222
     128     335                                                00010000D    223
     128       0    -269       3       0                               0D    224
     128     338                                                00010000D    225
     128       0    -269       3       0                               0D    226
     128     341                                                00010000D    227
     128       0    -269       6       0                               0D    228
     128     347                                                00010000D    229
     128       0    -269       7       0                               0D    230
     128     354                                                00010000D    231
     128       0    -269       6       0                               0D    232
     128     360                                                00010000D    233
     128       0    -269       7       0                               0D    234
     128     367                                                00010000D    235
     128       0    -269       5       0                               0D    236
     128     372                                                00010000D    237
     128       0    -269      10       0                               0D    238
     128     382                                                00010000D    239
     128       0    -269       5       0                               0D    240
     128     387                                                00010000D    241
     128       0    -269      21       0                               0D    242
     128     408                                                00010000D    243
     128       0    -269      20       0                               0D    244
     502     428                                                00010000D    245
     502                       8       1                               0D    246
     502     436                                                00010000D    247
     502                       2       1                               0D    248
     502     438                                                00010000D    249
     502                       4       1                               0D    250
     502     442                                                00010000D    251
     502                       3       1                               0D    252
     504     445                                                00010001D    253
     504                       6       1                               0D    254
     504     451                                                00010001D    255
     504                       2       1                               0D    256
     504     453                                                00010001D    257
     504                       4       1                               0D    258
     504     457                                                00010001D    259
     504                       2       1                               0D    260
     406     459                                                00000000D    261
     406                       1      15                               0D    262
     406     460                                                00000000D    263
     406                       1      15                               0D    264
     406     461                                                00000000D    265
     406                       1      15                               0D    266
     406     462                                                00000000D    267
     406                       1      15                               0D    268
     314     463                                                00000200D    269
     314                       2       0                               0D    270
186,9,1,0,0,1,261;                                                     1P      1
186,11,1,0,0,1,263;                                                    3P      2
186,13,1,0,0,1,265;                                                    5P      3
186,15,1,0,0,1,267;                                                    7P      4
514,9,17,1,19,1,21,1,23,1,25,1,27,1,29,1,31,1,33,1;                    9P      5
514,4,35,1,37,1,39,1,41,1;                                            11P      6
514,6,43,1,45,1,47,1,49,1,51,1,53,1;                                  13P      7
514,3,55,1,57,1,59,1;                                                 15P      8
510,201,1,1,61;                                                       17P      9
510,203,1,1,63;                                                       19P     10
510,205,1,1,65;                                                       21P     11
510,207,1,1,67;                                                       23P     12
510,209,1,1,69;                                                       25P     13
510,211,1,1,71;                                                       27P     14
510,213,1,1,73;                                                       29P     15
510,215,1,1,75;                                                       31P     16
510,217,1,1,77;                                                       33P     17
510,219,1,1,79;                                                       35P     18
510,221,1,1,81;                                                       37P     19
510,223,2,1,83,85;                                                    39P     20
510,225,2,1,87,89;                                                    41P     21
510,227,1,1,91;                                                       43P     22
510,229,1,1,93;                                                       45P     23
510,231,1,1,95;                                                       47P     24
510,233,1,1,97;                                                       49P     25
510,235,1,1,99;                                                       51P     26
510,237,1,1,101;                                                      53P     27
510,239,2,1,103,105;                                                  55P     28
510,241,1,1,107;                                                      57P     29
510,243,1,1,109;                                                      59P     30
508,4,0,253,1,1,0,0,253,2,1,0,0,253,3,1,0,0,253,4,1,0;                61P     31
508,4,0,253,4,0,0,0,253,5,1,0,0,253,6,0,0,0,253,7,0,0;                63P     32
508,7,0,253,3,0,0,0,253,8,0,0,0,253,9,0,0,0,253,10,0,0,0,253,11,      65P     33
1,0,0,253,12,0,0,0,253,5,0,0;                                         65P     34
508,4,0,253,2,0,0,0,253,13,1,0,0,253,14,0,0,0,253,8,1,0;              67P     35
508,4,0,253,15,0,0,0,253,16,1,0,0,253,17,1,0,0,253,10,1,0;            69P     36
508,4,0,253,18,1,0,0,253,19,1,0,0,253,6,1,0,0,253,12,1,0;             71P     37
508,4,0,253,20,0,0,0,253,18,0,0,0,253,11,0,0,0,253,17,0,0;            73P     38
508,7,0,253,1,0,0,0,253,7,1,0,0,253,19,0,0,0,253,20,1,0,0,253,        75P     39
16,0,0,0,253,21,0,0,0,253,13,0,0;                                     75P     40
508,4,0,253,14,1,0,0,253,21,1,0,0,253,15,1,0,0,253,9,1,0;             77P     41
508,4,0,255,1,0,0,0,255,2,1,0,0,255,3,0,0,0,255,2,0,0;                79P     42
508,4,0,255,4,0,0,0,255,5,1,0,0,255,6,0,0,0,255,5,0,0;                81P     43
508,1,0,255,6,1,0;                                                    83P     44
508,1,0,255,1,1,0;                                                    85P     45
508,1,0,255,4,1,0;                                                    87P     46
508,1,0,255,3,1,0;                                                    89P     47
508,4,0,257,1,0,0,0,257,2,0,0,0,257,3,0,0,0,257,4,0,0;                91P     48
508,4,0,257,3,1,0,0,257,5,1,0,0,257,6,1,0,0,257,7,1,0;                93P     49
508,4,0,257,2,1,0,0,257,8,0,0,0,257,9,1,0,0,257,5,0,0;                95P     50
508,4,0,257,1,1,0,0,257,10,1,0,0,257,11,1,0,0,257,8,1,0;              97P     51
508,4,0,257,4,1,0,0,257,7,0,0,0,257,12,1,0,0,257,10,0,0;              99P     52
508,4,0,257,12,0,0,0,257,6,0,0,0,257,9,0,0,0,257,11,0,0;             101P     53
508,2,0,259,1,0,0,0,259,2,0,0;                                       103P     54
508,2,0,259,3,0,0,0,259,4,0,0;                                       105P     55
508,4,0,259,3,1,0,0,259,5,0,0,0,259,5,1,0,0,259,4,1,0;               107P     56
508,4,0,259,1,1,0,0,259,6,1,0,0,259,6,0,0,0,259,2,1,0;               109P     57
126,1,1,0,0,1,0,-1.62698604431766,-1.62698604431766,                 111P     58
-1.55627536619901,-1.55627536619901,1.,1.,45.0000005215406,0.,       111P     59
-0.500000000000003,44.5000005215406,0.,-2.22044604925031D-15,        111P     60
-1.62698604431766,-1.55627536619901,0.,0.,0.;                        111P     61
126,1,1,0,0,1,0,-1.81641739871452D-7,-1.81641739871452D-7,           113P     62
1.9999989980591,1.9999989980591,1.,1.,44.5000005215406,0.,0.,        113P     63
44.5000005215406,-19.9999917970084,0.,-1.81641739871452D-7,          113P     64
1.9999989980591,0.,0.,0.;                                            113P     65
126,1,1,0,0,1,0,0.318198051533946,0.318198051533946,                 115P     66
0.388908729652601,0.388908729652601,1.,1.,44.5000005215406,          115P     67
-19.9999917970084,-2.77555756156289D-15,45.0000005215406,            115P     68
-19.9999917970084,-0.500000000000003,0.318198051533946,              115P     69
0.388908729652601,0.,0.,0.;                                          115P     70
126,1,1,0,0,1,0,-1.9999989980591,-1.9999989980591,                   117P     71
1.81641739871452D-7,1.81641739871452D-7,1.,1.,45.0000005215406,      117P     72
-19.9999917970084,-0.5,45.0000005215406,0.,-0.5,                     117P     73
-1.9999989980591,1.81641739871452D-7,0.,0.,0.;                       117P     74
126,1,1,0,0,1,0,0.05,0.05,0.4,0.4,1.,1.,45.0000005215406,            119P     75
-19.9999917970084,-0.5,45.0000005215406,-19.9999917970084,-4.,       119P     76
0.05,0.4,0.,0.,0.;                                                   119P     77
126,1,1,0,0,1,0,0.,0.,1.99999917970084,1.99999917970084,1.,1.,       121P     78
45.0000005215406,0.,-4.,45.0000005215406,-19.9999917970084,-4.,      121P     79
0.,1.99999917970084,0.,0.,0.;                                        121P     80
126,1,1,0,0,1,0,0.05,0.05,0.4,0.4,1.,1.,45.0000005215406,0.,         123P     81
-0.5,45.0000005215406,0.,-4.,0.05,0.4,0.,0.,0.;                      123P     82
126,1,1,0,0,1,0,2.50181144443044,2.50181144443044,                   125P     83
4.4518114593316,4.4518114593316,1.,1.,25.000000372529,               125P     84
-19.9999917970084,0.,44.5000005215406,-19.9999917970084,0.,          125P     85
2.50181144443044,4.4518114593316,0.,0.,0.;                           125P     86
126,1,1,0,0,1,0,-0.1,-0.1,0.1,0.1,1.,1.,25.000000372529,             127P     87
-19.9999917970084,-2.,25.000000372529,-19.9999917970084,0.,-0.1,     127P     88
0.1,0.,0.,0.;                                                        127P     89
126,1,1,0,0,1,0,-4.35771315595546,-4.35771315595546,                 129P     90
-2.50181144443044,-2.50181144443044,1.,1.,43.5590174877793,          129P     91
-19.9999917970084,-2.,25.000000372529,-19.9999917970084,-2.,         129P     92
-4.35771315595546,-2.50181144443044,0.,0.,0.;                        129P     93
126,1,1,0,0,1,0,0.293328158872024,0.293328158872024,                 131P     94
0.516934957288403,0.516934957288403,1.,1.,43.5590174877793,          131P     95
-19.9999917970084,-2.,44.5590175026804,-19.9999917970084,-4.,        131P     96
0.293328158872024,0.516934957288403,0.,0.,0.;                        131P     97
126,1,1,0,0,1,0,0.,0.,0.044098301886021,0.044098301886021,1.,1.,     133P     98
45.0000005215406,-19.9999917970084,-4.,44.5590175026804,             133P     99
-19.9999917970084,-4.,0.,0.044098301886021,0.,0.,0.;                 133P    100
126,1,1,0,0,1,0,-0.95,-0.95,1.00000001490116,1.00000001490116,       135P    101
1.,1.,44.5000005215406,0.,0.,25.000000372529,0.,0.,-0.95,            135P    102
1.00000001490116,0.,0.,0.;                                           135P    103
126,1,1,0,0,1,0,-1.9999989980591,-1.9999989980591,                   137P    104
1.81641739871452D-7,1.81641739871452D-7,1.,1.,25.000000372529,       137P    105
-19.9999917970084,0.,25.000000372529,0.,0.,-1.9999989980591,         137P    106
1.81641739871452D-7,0.,0.,0.;                                        137P    107
126,1,1,0,0,1,0,-1.81641739871452D-7,-1.81641739871452D-7,           139P    108
1.9999989980591,1.9999989980591,1.,1.,25.000000372529,0.,-2.,        139P    109
25.000000372529,-19.9999917970084,-2.,-1.81641739871452D-7,          139P    110
1.9999989980591,0.,0.,0.;                                            139P    111
126,1,1,0,0,1,0,-1.00000001490116,-1.00000001490116,                 141P    112
0.855901696623863,0.855901696623863,1.,1.,25.000000372529,0.,        141P    113
-2.,43.5590174877793,0.,-2.,-1.00000001490116,0.855901696623863,     141P    114
0.,0.,0.;                                                            141P    115
126,1,1,0,0,1,0,-0.99999977149216,-0.99999977149216,                 143P    116
0.999999408208681,0.999999408208681,1.,1.,43.5590174877793,0.,       143P    117
-2.,43.5590174877793,-19.9999917970084,-2.,-0.99999977149216,        143P    118
0.999999408208681,0.,0.,0.;                                          143P    119
126,1,1,0,0,1,0,-0.49999979492521,-0.49999979492521,                 145P    120
1.49999938477563,1.49999938477563,1.,1.,44.5590175026804,            145P    121
-19.9999917970084,-4.,44.5590175026804,0.,-4.,-0.49999979492521,     145P    122
1.49999938477563,0.,0.,0.;                                           145P    123
126,1,1,0,0,1,0,0.155901701094211,0.155901701094211,                 147P    124
0.200000002980232,0.200000002980232,1.,1.,44.5590175026804,0.,       147P    125
-4.,45.0000005215406,0.,-4.,0.155901701094211,0.200000002980232,     147P    126
0.,0.,0.;                                                            147P    127
126,1,1,0,0,1,0,-1.29996381336815,-1.29996381336815,                 149P    128
-1.07635701495177,-1.07635701495177,1.,1.,44.5590175026804,0.,       149P    129
-4.,43.5590174877793,0.,-2.,-1.29996381336815,-1.07635701495177,     149P    130
0.,0.,0.;                                                            149P    131
126,1,1,0,0,1,0,-0.1,-0.1,0.1,0.1,1.,1.,25.000000372529,0.,0.,       151P    132
25.000000372529,0.,-2.,-0.1,0.1,0.,0.,0.;                            151P    133
126,8,2,0,1,0,0,-3.14159265358979,-3.14159265358979,                 153P    134
-3.14159265358979,-1.5707963267949,-1.5707963267949,0.,0.,           153P    135
1.5707963267949,1.5707963267949,3.14159265358979,                    153P    136
3.14159265358979,3.14159265358979,1.,0.707106781186548,1.,           153P    137
0.707106781186548,1.,0.707106781186548,1.,0.707106781186548,1.,      153P    138
18.5,-2.2655965784226D-15,0.,18.5,-18.5,0.,-1.1327982892113D-15,     153P    139
-18.5,0.,-18.5,-18.5,0.,-18.5,0.,0.,-18.5,18.5,0.,                   153P    140
-1.1327982892113D-15,18.5,0.,18.5,18.5,0.,18.5,                      153P    141
2.2655965784226D-15,0.,-3.14159265358979,3.14159265358979,0.,0.,     153P    142
0.;                                                                  153P    143
126,1,1,0,0,1,0,0.,0.,0.113513513513514,0.113513513513514,1.,1.,     155P    144
18.5,0.,0.,18.5,0.,-2.1,0.,0.113513513513514,0.,0.,0.;               155P    145
126,8,2,0,1,0,0,-3.14159265358979,-3.14159265358979,                 157P    146
-3.14159265358979,-1.5707963267949,-1.5707963267949,0.,0.,           157P    147
1.5707963267949,1.5707963267949,3.14159265358979,                    157P    148
3.14159265358979,3.14159265358979,1.,0.707106781186548,1.,           157P    149
0.707106781186548,1.,0.707106781186548,1.,0.707106781186548,1.,      157P    150
18.5,2.2655965784226D-15,-2.1,18.5,18.5,-2.1,                        157P    151
-1.1327982892113D-15,18.5,-2.1,-18.5,18.5,-2.1,-18.5,0.,-2.1,        157P    152
-18.5,-18.5,-2.1,-1.1327982892113D-15,-18.5,-2.1,18.5,-18.5,         157P    153
-2.1,18.5,-2.2655965784226D-15,-2.1,-3.14159265358979,               157P    154
3.14159265358979,0.,0.,0.;                                           157P    155
126,8,2,0,1,0,0,-3.14159265358979,-3.14159265358979,                 159P    156
-3.14159265358979,-1.5707963267949,-1.5707963267949,0.,0.,           159P    157
1.5707963267949,1.5707963267949,3.14159265358979,                    159P    158
3.14159265358979,3.14159265358979,1.,0.707106781186548,1.,           159P    159
0.707106781186547,1.,0.707106781186547,1.,0.707106781186548,1.,      159P    160
-20.,2.44929359829471D-15,-2.1,-20.,20.,-2.1,                        159P    161
1.22464679914735D-15,20.,-2.1,20.,20.,-2.1,20.,0.,-2.1,20.,-20.,     159P    162
-2.1,1.22464679914735D-15,-20.,-2.1,-20.,-20.,-2.1,-20.,             159P    163
-2.44929359829471D-15,-2.1,-3.14159265358979,3.14159265358979,       159P    164
0.,0.,0.;                                                            159P    165
126,1,1,0,0,1,0,-0.105,-0.105,0.,0.,1.,1.,-20.,0.,-2.1,-20.,0.,      161P    166
0.,-0.105,0.,0.,0.,0.;                                               161P    167
126,8,2,0,1,0,0,-3.14159265358979,-3.14159265358979,                 163P    168
-3.14159265358979,-1.5707963267949,-1.5707963267949,0.,0.,           163P    169
1.5707963267949,1.5707963267949,3.14159265358979,                    163P    170
3.14159265358979,3.14159265358979,1.,0.707106781186548,1.,           163P    171
0.707106781186547,1.,0.707106781186547,1.,0.707106781186548,1.,      163P    172
-20.,-2.44929359829471D-15,0.,-20.,-20.,0.,1.22464679914735D-15,     163P    173
-20.,0.,20.,-20.,0.,20.,0.,0.,20.,20.,0.,1.22464679914735D-15,       163P    174
20.,0.,-20.,20.,0.,-20.,2.44929359829471D-15,0.,                     163P    175
-3.14159265358979,3.14159265358979,0.,0.,0.;                         163P    176
126,1,1,0,0,1,0,-1.9999989980591,-1.9999989980591,                   165P    177
1.81641739871452D-7,1.81641739871452D-7,1.,1.,25.000000372529,       165P    178
-19.9999917970084,0.,25.000000372529,0.,0.,-1.9999989980591,         165P    179
1.81641739871452D-7,0.,0.,0.;                                        165P    180
126,1,1,0,0,1,0,-0.1,-0.1,0.1,0.1,1.,1.,25.000000372529,             167P    181
-19.9999917970084,-2.,25.000000372529,-19.9999917970084,0.,-0.1,     167P    182
0.1,0.,0.,0.;                                                        167P    183
126,1,1,0,0,1,0,-1.81641739871452D-7,-1.81641739871452D-7,           169P    184
1.9999989980591,1.9999989980591,1.,1.,25.000000372529,0.,-2.,        169P    185
25.000000372529,-19.9999917970084,-2.,-1.81641739871452D-7,          169P    186
1.9999989980591,0.,0.,0.;                                            169P    187
126,1,1,0,0,1,0,-0.1,-0.1,0.1,0.1,1.,1.,25.000000372529,0.,0.,       171P    188
25.000000372529,0.,-2.,-0.1,0.1,0.,0.,0.;                            171P    189
126,1,1,0,0,1,0,-2.50181144443044,-2.50181144443044,0.,0.,1.,1.,     173P    190
25.000000372529,-19.9999917970084,-2.,-0.0181140717753348,           173P    191
-19.9999917970084,-2.,-2.50181144443044,0.,0.,0.,0.;                 173P    192
126,4,2,0,0,0,0,-1.57170203050749,-1.57170203050749,                 175P    193
-1.57170203050749,-0.785851015253744,-0.785851015253744,0.,0.,       175P    194
0.,1.,0.923792859377616,1.,0.923792859377616,1.,                     175P    195
-0.0181140717753347,-19.9999917970084,-2.,8.27145976296566,          175P    196
-20.0074996968592,-2.,14.1357298814828,-14.1485384657834,-2.,        175P    197
20.,-8.28957723470761,-2.,20.,0.,-2.,-1.57170203050749,0.,0.,0.,     175P    198
0.;                                                                  175P    199
126,1,1,0,0,1,0,-1.50000005215406,-1.50000005215406,                 177P    200
-1.00000001490116,-1.00000001490116,1.,1.,20.,0.,-2.,                177P    201
25.000000372529,0.,-2.,-1.50000005215406,-1.00000001490116,0.,       177P    202
0.,0.;                                                               177P    203
126,1,1,0,0,1,0,0.,0.,2.50181144443044,2.50181144443044,1.,1.,       179P    204
-0.0181140717753367,-19.9999917970084,0.,25.000000372529,            179P    205
-19.9999917970084,0.,0.,2.50181144443044,0.,0.,0.;                   179P    206
126,1,1,0,0,1,0,0.,0.,0.2,0.2,1.,1.,-0.0181140717753367,             181P    207
-19.9999917970084,0.,-0.0181140717753367,-19.9999917970084,-2.,      181P    208
0.,0.2,0.,0.,0.;                                                     181P    209
126,1,1,0,0,1,0,1.00000001490116,1.00000001490116,                   183P    210
1.50000005215406,1.50000005215406,1.,1.,25.000000372529,0.,0.,       183P    211
20.,0.,0.,1.00000001490116,1.50000005215406,0.,0.,0.;                183P    212
126,4,2,0,0,0,0,0.,0.,0.,0.785851015253744,0.785851015253744,        185P    213
1.57170203050749,1.57170203050749,1.57170203050749,1.,               185P    214
0.923792859377616,1.,0.923792859377616,1.,20.,0.,0.,20.,             185P    215
-8.28957723470761,0.,14.1357298814828,-14.1485384657834,0.,          185P    216
8.27145976296566,-20.0074996968592,0.,-0.0181140717753347,           185P    217
-19.9999917970084,0.,0.,1.57170203050749,0.,0.,0.;                   185P    218
126,1,1,0,0,1,0,-0.2,-0.2,0.,0.,1.,1.,20.,0.,-2.,20.,0.,0.,-0.2,     187P    219
0.,0.,0.,0.;                                                         187P    220
126,2,2,0,0,0,0,-6.28318530717959,-6.28318530717959,                 189P    221
-6.28318530717959,-4.71238898038469,-4.71238898038469,               189P    222
-4.71238898038469,1.,0.707106781186548,1.,-4.89858719658941D-15,     189P    223
-20.,0.,-20.,-20.,0.,-20.,3.67394039744206D-15,0.,                   189P    224
-6.28318530717959,-4.71238898038469,0.,0.,0.;                        189P    225
126,6,2,0,0,0,0,-4.71238898038469,-4.71238898038469,                 191P    226
-4.71238898038469,-3.14159265358979,-3.14159265358979,               191P    227
-1.5707963267949,-1.5707963267949,0.,0.,0.,1.,0.707106781186548,     191P    228
1.,0.707106781186548,1.,0.707106781186547,1.,-20.,                   191P    229
3.67394039744206D-15,0.,-20.,20.,0.,2.44929359829471D-15,20.,0.,     191P    230
20.,20.,0.,20.,-1.22464679914735D-15,0.,20.,-20.,0.,0.,-20.,0.,      191P    231
-4.71238898038469,0.,0.,0.,0.;                                       191P    232
126,2,2,0,0,0,0,-3.14159265358979,-3.14159265358979,                 193P    233
-3.14159265358979,-1.5707963267949,-1.5707963267949,                 193P    234
-1.5707963267949,1.,0.707106781186548,1.,-2.2655965784226D-15,       193P    235
18.5,0.,-18.5,18.5,0.,-18.5,-1.1327982892113D-15,0.,                 193P    236
-3.14159265358979,-1.5707963267949,0.,0.,0.;                         193P    237
126,6,2,0,0,0,0,-1.5707963267949,-1.5707963267949,                   195P    238
-1.5707963267949,0.,0.,1.5707963267949,1.5707963267949,              195P    239
3.14159265358979,3.14159265358979,3.14159265358979,1.,               195P    240
0.707106781186548,1.,0.707106781186548,1.,0.707106781186548,1.,      195P    241
-18.5,-1.1327982892113D-15,0.,-18.5,-18.5,0.,0.,-18.5,0.,18.5,       195P    242
-18.5,0.,18.5,-1.1327982892113D-15,0.,18.5,18.5,0.,                  195P    243
2.2655965784226D-15,18.5,0.,-1.5707963267949,3.14159265358979,       195P    244
0.,0.,0.;                                                            195P    245
126,2,2,0,0,0,0,-1.5707963267949,-1.5707963267949,                   197P    246
-1.5707963267949,0.,0.,0.,1.,0.707106781186548,1.,                   197P    247
-1.1327982892113D-15,0.,-18.5,-18.5,0.,-18.5,-18.5,0.,0.,            197P    248
-1.5707963267949,0.,0.,0.,0.;                                        197P    249
126,2,2,0,0,0,0,0.,0.,0.,1.5707963267949,1.5707963267949,            199P    250
1.5707963267949,1.,0.707106781186547,1.,-20.,0.,0.,-20.,0.,-20.,     199P    251
-1.22464679914735D-15,0.,-20.,0.,1.5707963267949,0.,0.,0.;           199P    252
128,1,1,1,1,0,0,1,0,0,-0.0363553390593269,-0.0363553390593269,       201P    253
0.0363553390593282,0.0363553390593282,-2.0009989980591,              201P    254
-2.0009989980591,0.00100018164173987,0.00100018164173987,1.,1.,      201P    255
1.,1.,44.4929294537288,-20.0099917970084,0.00707106781186229,        201P    256
45.0070715893525,-20.0099917970084,-0.507071067811872,               201P    257
44.4929294537288,0.01,0.00707106781186229,45.0070715893525,          201P    258
0.0099999999999989,-0.507071067811872,-0.0363553390593269,           201P    259
0.0363553390593282,-2.0009989980591,0.00100018164173987;             201P    260
128,1,1,1,1,0,0,1,0,0,-0.001,-0.001,2.00099917970084,                203P    261
2.00099917970084,0.049,0.049,0.401,0.401,1.,1.,1.,1.,                203P    262
45.0000005215406,0.01,-0.49,45.0000005215406,-20.0099917970084,      203P    263
-0.49,45.0000005215406,0.01,-4.01,45.0000005215406,                  203P    264
-20.0099917970084,-4.01,-0.001,2.00099917970084,0.049,0.401;         203P    265
128,1,1,1,1,0,0,1,0,0,-1.001,-1.001,1.00100001490116,                205P    266
1.00100001490116,-0.001,-0.001,0.401,0.401,1.,1.,1.,1.,              205P    267
45.0100005215406,-19.9999917970084,0.01,24.990000372529,             205P    268
-19.9999917970084,0.01,45.0100005215406,-19.9999917970084,-4.01,     205P    269
24.990000372529,-19.9999917970084,-4.01,-1.001,1.00100001490116,     205P    270
-0.001,0.401;                                                        205P    271
128,1,1,1,1,0,0,1,0,0,-4.45100005215406,-4.45100005215406,           207P    272
-2.4990000372529,-2.4990000372529,-0.00100036328347974,              207P    273
-0.00100036328347974,2.00099881641736,2.00099881641736,1.,1.,1.,     207P    274
1.,44.5100005215406,0.01,0.,24.990000372529,0.01,0.,                 207P    275
44.5100005215406,-20.0099917970084,0.,24.990000372529,               207P    276
-20.0099917970084,0.,-4.45100005215406,-2.4990000372529,             207P    277
-0.00100036328347974,2.00099881641736;                               207P    278
128,1,1,1,1,0,0,1,0,0,-4.35690174877793,-4.35690174877793,           209P    279
-2.4990000372529,-2.4990000372529,-2.00099881641736,                 209P    280
-2.00099881641736,0.00100036328347974,0.00100036328347974,1.,1.,     209P    281
1.,1.,43.5690174877793,-20.0099917970084,-2.,24.990000372529,        209P    282
-20.0099917970084,-2.,43.5690174877793,0.01,-2.,24.990000372529,     209P    283
0.0099999999999989,-2.,-4.35690174877793,-2.4990000372529,           209P    284
-2.00099881641736,0.00100036328347974;                               209P    285
128,1,1,1,1,0,0,1,0,0,-0.101000001490116,-0.101000001490116,         211P    286
-0.0549016996040951,-0.0549016996040951,-1.00099958985042,           211P    287
-1.00099958985042,1.00099958985042,1.00099958985042,1.,1.,1.,1.,     211P    288
45.0100005215406,-20.0099917970084,-4.,44.5490175026804,             211P    289
-20.0099917970084,-4.,45.0100005215406,0.0099999999999989,-4.,       211P    290
44.5490175026804,0.0099999999999989,-4.,-0.101000001490116,          211P    291
-0.0549016996040951,-1.00099958985042,1.00099958985042;              211P    292
128,1,1,1,1,0,0,1,0,0,0.024000000372529,0.024000000372529,           213P    293
0.249606798788908,0.249606798788908,-0.001,-0.001,                   213P    294
2.00099917970084,2.00099917970084,1.,1.,1.,1.,44.5634896386888,      213P    295
-20.0099917970084,-4.00894427188334,43.554545351771,                 213P    296
-20.0099917970084,-1.99105572811666,44.5634896386888,                213P    297
0.0100000000000033,-4.00894427188334,43.554545351771,                213P    298
0.0100000000000033,-1.99105572811666,0.024000000372529,              213P    299
0.249606798788908,-0.001,2.00099917970084;                           213P    300
128,1,1,1,1,0,0,1,0,0,2.50081144443044,2.50081144443044,             215P    301
4.5028114593316,4.5028114593316,-0.001,-0.001,0.401,0.401,1.,1.,     215P    302
1.,1.,24.990000372529,0.,0.01,45.0100005215406,0.,0.01,              215P    303
24.990000372529,0.,-4.01,45.0100005215406,0.,-4.01,                  215P    304
2.50081144443044,4.5028114593316,-0.001,0.401;                       215P    305
128,1,1,1,1,0,0,1,0,0,-0.000999999999999945,                         217P    306
-0.000999999999999945,0.201,0.201,-2.00099917970084,                 217P    307
-2.00099917970084,0.001,0.001,1.,1.,1.,1.,25.000000372529,           217P    308
-20.0099917970084,-2.01,25.000000372529,-20.0099917970084,0.01,      217P    309
25.000000372529,0.01,-2.01,25.000000372529,0.0099999999999989,       217P    310
0.01,-0.000999999999999945,0.201,-2.00099917970084,0.001;            217P    311
128,1,8,1,2,0,1,0,0,1,0.,0.,0.113513513513514,0.113513513513514,     219P    312
-3.14159265358979,-3.14159265358979,-3.14159265358979,               219P    313
-1.5707963267949,-1.5707963267949,0.,0.,1.5707963267949,             219P    314
1.5707963267949,3.14159265358979,3.14159265358979,                   219P    315
3.14159265358979,1.,1.,0.707106781186548,0.707106781186548,1.,       219P    316
1.,0.707106781186548,0.707106781186548,1.,1.,0.707106781186548,      219P    317
0.707106781186548,1.,1.,0.707106781186548,0.707106781186548,1.,      219P    318
1.,18.5,0.,0.,18.5,0.,-2.1,18.5,-18.5,0.,18.5,-18.5,-2.1,0.,         219P    319
-18.5,0.,0.,-18.5,-2.1,-18.5,-18.5,0.,-18.5,-18.5,-2.1,-18.5,0.,     219P    320
0.,-18.5,0.,-2.1,-18.5,18.5,0.,-18.5,18.5,-2.1,0.,18.5,0.,0.,        219P    321
18.5,-2.1,18.5,18.5,0.,18.5,18.5,-2.1,18.5,0.,0.,18.5,0.,-2.1,       219P    322
0.,0.113513513513514,-3.14159265358979,3.14159265358979;             219P    323
128,1,8,1,2,0,1,0,0,1,0.,0.,0.105,0.105,-3.14159265358979,           221P    324
-3.14159265358979,-3.14159265358979,-1.5707963267949,                221P    325
-1.5707963267949,0.,0.,1.5707963267949,1.5707963267949,              221P    326
3.14159265358979,3.14159265358979,3.14159265358979,1.,1.,            221P    327
0.707106781186548,0.707106781186548,1.,1.,0.707106781186548,         221P    328
0.707106781186548,1.,1.,0.707106781186548,0.707106781186548,1.,      221P    329
1.,0.707106781186548,0.707106781186548,1.,1.,-20.,0.,-2.1,-20.,      221P    330
0.,0.,-20.,20.,-2.1,-20.,20.,0.,0.,20.,-2.1,0.,20.,0.,20.,20.,       221P    331
-2.1,20.,20.,0.,20.,0.,-2.1,20.,0.,0.,20.,-20.,-2.1,20.,-20.,0.,     221P    332
0.,-20.,-2.1,0.,-20.,0.,-20.,-20.,-2.1,-20.,-20.,0.,-20.,0.,         221P    333
-2.1,-20.,0.,0.,0.,0.105,-3.14159265358979,3.14159265358979;         221P    334
128,1,1,1,1,0,0,1,0,0,-2.001,-2.001,2.001,2.001,-2.001,-2.001,       223P    335
2.001,2.001,1.,1.,1.,1.,-20.01,-20.01,0.,20.01,-20.01,0.,-20.01,     223P    336
20.01,0.,20.01,20.01,0.,-2.001,2.001,-2.001,2.001;                   223P    337
128,1,1,1,1,0,0,1,0,0,-2.001,-2.001,2.001,2.001,-2.001,-2.001,       225P    338
2.001,2.001,1.,1.,1.,1.,20.01,-20.01,-2.1,-20.01,-20.01,-2.1,        225P    339
20.01,20.01,-2.1,-20.01,20.01,-2.1,-2.001,2.001,-2.001,2.001;        225P    340
128,1,1,1,1,0,0,1,0,0,-0.000999999999999945,                         227P    341
-0.000999999999999945,0.201,0.201,-2.00099917970084,                 227P    342
-2.00099917970084,0.001,0.001,1.,1.,1.,1.,25.000000372529,           227P    343
-20.0099917970084,0.01,25.000000372529,-20.0099917970084,-2.01,      227P    344
25.000000372529,0.0099999999999989,0.01,25.000000372529,0.01,        227P    345
-2.01,-0.000999999999999945,0.201,-2.00099917970084,0.001;           227P    346
128,1,1,1,1,0,0,1,0,0,-2.5010000372529,-2.5010000372529,             229P    347
0.00281140717753381,0.00281140717753381,-2.00174960640244,           229P    348
-2.00174960640244,0.00100036328347974,0.00100036328347974,1.,1.,     229P    349
1.,1.,25.010000372529,-20.0174996968592,-2.,-0.0281140717753367,     229P    350
-20.0174996968592,-2.,25.010000372529,0.01,-2.,                      229P    351
-0.0281140717753381,0.0099999999999989,-2.,-2.5010000372529,         229P    352
0.00281140717753381,-2.00174960640244,0.00100036328347974;           229P    353
128,1,1,1,1,0,0,1,0,0,0.999000014901161,0.999000014901161,           231P    354
3.5028114593316,3.5028114593316,-0.001,-0.001,0.201,0.201,1.,1.,     231P    355
1.,1.,25.010000372529,-19.9999917970084,0.01,                        231P    356
-0.0281140717753336,-19.9999917970084,0.01,25.010000372529,          231P    357
-19.9999917970084,-2.01,-0.0281140717753336,-19.9999917970084,       231P    358
-2.01,0.999000014901161,3.5028114593316,-0.001,0.201;                231P    359
128,1,1,1,1,0,0,1,0,0,-2.5010000372529,-2.5010000372529,             233P    360
0.00281140717753381,0.00281140717753381,-0.00100036328347974,        233P    361
-0.00100036328347974,2.00174960640244,2.00174960640244,1.,1.,1.,     233P    362
1.,25.010000372529,0.01,0.,-0.0281140717753367,0.01,0.,              233P    363
25.010000372529,-20.0174996968592,0.,-0.0281140717753381,            233P    364
-20.0174996968592,0.,-2.5010000372529,0.00281140717753381,           233P    365
-0.00100036328347974,2.00174960640244;                               233P    366
128,1,1,1,1,0,0,1,0,0,2.00081140717753,2.00081140717753,             235P    367
2.50281144443044,2.50281144443044,-0.001,-0.001,0.201,0.201,1.,      235P    368
1.,1.,1.,19.99,0.,0.01,25.010000372529,0.,0.01,19.99,0.,-2.01,       235P    369
25.010000372529,0.,-2.01,2.00081140717753,2.50281144443044,          235P    370
-0.001,0.201;                                                        235P    371
128,1,4,1,2,0,0,0,0,0,0.,0.,0.1,0.1,0.,0.,0.,0.785851015253744,      237P    372
0.785851015253744,1.57170203050749,1.57170203050749,                 237P    373
1.57170203050749,1.,1.,0.923792859377615,0.923792859377615,1.,       237P    374
1.,0.923792859377615,0.923792859377615,1.,1.,20.,0.,0.,20.,0.,       237P    375
-2.,20.,-8.28957723470762,0.,20.,-8.28957723470762,-2.,              237P    376
14.1357298814828,-14.1485384657834,0.,14.1357298814828,              237P    377
-14.1485384657834,-2.,8.27145976296566,-20.0074996968592,0.,         237P    378
8.27145976296566,-20.0074996968592,-2.,-0.0181140717753347,          237P    379
-19.9999917970084,0.,-0.0181140717753347,-19.9999917970084,-2.,      237P    380
0.,0.1,0.,1.57170203050749;                                          237P    381
128,1,1,1,1,0,0,1,0,0,-0.000999970197677612,                         239P    382
-0.000999970197677612,4.00100002980232,4.00100002980232,-2.001,      239P    383
-2.001,2.001,2.001,1.,1.,1.,1.,-20.01,20.01,0.,-20.01,-20.01,0.,     239P    384
20.01,20.01,0.,20.01,-20.01,0.,-0.000999970197677612,                239P    385
4.00100002980232,-2.001,2.001;                                       239P    386
128,2,8,2,2,0,1,0,0,1,-1.5707963267949,-1.5707963267949,             241P    387
-1.5707963267949,0.,0.,0.,-3.14159265358979,-3.14159265358979,       241P    388
-3.14159265358979,-1.5707963267949,-1.5707963267949,0.,0.,           241P    389
1.5707963267949,1.5707963267949,3.14159265358979,                    241P    390
3.14159265358979,3.14159265358979,1.,0.707106781186548,1.,           241P    391
0.707106781186548,0.5,0.707106781186548,1.,0.707106781186548,1.,     241P    392
0.707106781186548,0.5,0.707106781186548,1.,0.707106781186548,1.,     241P    393
0.707106781186548,0.5,0.707106781186548,1.,0.707106781186548,1.,     241P    394
0.707106781186548,0.5,0.707106781186548,1.,0.707106781186548,1.,     241P    395
-1.1327982892113D-15,0.,-18.5,-18.5,0.,-18.5,-18.5,0.,0.,            241P    396
-1.1327982892113D-15,-1.1327982892113D-15,-18.5,-18.5,-18.5,         241P    397
-18.5,-18.5,-18.5,0.,0.,-1.1327982892113D-15,-18.5,0.,-18.5,         241P    398
-18.5,0.,-18.5,0.,1.1327982892113D-15,-1.1327982892113D-15,          241P    399
-18.5,18.5,-18.5,-18.5,18.5,-18.5,0.,1.1327982892113D-15,0.,         241P    400
-18.5,18.5,0.,-18.5,18.5,0.,0.,1.1327982892113D-15,                  241P    401
1.1327982892113D-15,-18.5,18.5,18.5,-18.5,18.5,18.5,0.,0.,           241P    402
1.1327982892113D-15,-18.5,0.,18.5,-18.5,0.,18.5,0.,                  241P    403
-1.1327982892113D-15,1.1327982892113D-15,-18.5,-18.5,18.5,-18.5,     241P    404
-18.5,18.5,0.,-1.1327982892113D-15,0.,-18.5,-18.5,0.,-18.5,          241P    405
-18.5,0.,0.,-1.5707963267949,0.,-3.14159265358979,                   241P    406
3.14159265358979;                                                    241P    407
128,2,8,2,2,0,1,0,0,1,-1.5707963267949,-1.5707963267949,             243P    408
-1.5707963267949,0.,0.,0.,-3.14159265358979,-3.14159265358979,       243P    409
-3.14159265358979,-1.5707963267949,-1.5707963267949,0.,0.,           243P    410
1.5707963267949,1.5707963267949,3.14159265358979,                    243P    411
3.14159265358979,3.14159265358979,1.,0.707106781186547,1.,           243P    412
0.707106781186548,0.5,0.707106781186548,1.,0.707106781186547,1.,     243P    413
0.707106781186548,0.5,0.707106781186548,1.,0.707106781186547,1.,     243P    414
0.707106781186548,0.5,0.707106781186548,1.,0.707106781186547,1.,     243P    415
0.707106781186548,0.5,0.707106781186548,1.,0.707106781186547,1.,     243P    416
-20.,0.,0.,-20.,0.,-20.,-1.22464679914735D-15,0.,-20.,-20.,-20.,     243P    417
0.,-20.,-20.,-20.,-1.22464679914735D-15,-1.22464679914735D-15,       243P    418
-20.,0.,-20.,0.,0.,-20.,-20.,0.,-1.22464679914735D-15,-20.,20.,      243P    419
-20.,0.,20.,-20.,-20.,1.22464679914735D-15,                          243P    420
-1.22464679914735D-15,-20.,20.,0.,0.,20.,0.,-20.,                    243P    421
1.22464679914735D-15,0.,-20.,20.,20.,0.,20.,20.,-20.,                243P    422
1.22464679914735D-15,1.22464679914735D-15,-20.,0.,20.,0.,0.,20.,     243P    423
-20.,0.,1.22464679914735D-15,-20.,-20.,20.,0.,-20.,20.,-20.,         243P    424
-1.22464679914735D-15,1.22464679914735D-15,-20.,-20.,0.,0.,-20.,     243P    425
0.,-20.,-1.22464679914735D-15,0.,-20.,-1.5707963267949,0.,           243P    426
-3.14159265358979,3.14159265358979;                                  243P    427
502,14,45.0000005215406,0.,-0.5,44.5000005215406,0.,0.,              245P    428
44.5000005215406,-19.9999917970084,0.,45.0000005215406,              245P    429
-19.9999917970084,-0.5,45.0000005215406,-19.9999917970084,-4.,       245P    430
45.0000005215406,0.,-4.,25.000000372529,-19.9999917970084,0.,        245P    431
25.000000372529,-19.9999917970084,-2.,43.5590174877793,              245P    432
-19.9999917970084,-2.,44.5590175026804,-19.9999917970084,-4.,        245P    433
25.000000372529,0.,0.,25.000000372529,0.,-2.,43.5590174877793,       245P    434
0.,-2.,44.5590175026804,0.,-4.;                                      245P    435
502,4,18.5,2.2655965784226D-15,0.,18.5,2.2655965784226D-15,-2.1,     247P    436
-20.,-2.44929359829471D-15,-2.1,-20.,-2.44929359829471D-15,0.;       247P    437
502,8,25.000000372529,-19.9999917970084,0.,25.000000372529,0.,       249P    438
0.,25.000000372529,-19.9999917970084,-2.,25.000000372529,0.,-2.,     249P    439
-0.0181140717753348,-19.9999917970084,-2.,20.,0.,-2.,                249P    440
-0.0181140717753367,-19.9999917970084,0.,20.,0.,0.;                  249P    441
502,6,0.,-20.0000002980232,0.,-20.,0.,0.,-2.2655965784226D-15,       251P    442
18.5,0.,-18.5,0.,0.,-1.1327982892113D-15,0.,-18.5,                   251P    443
-1.22464679914735D-15,0.,-20.;                                       251P    444
504,21,111,245,1,245,2,113,245,2,245,3,115,245,3,245,4,117,245,      253P    445
4,245,1,119,245,4,245,5,121,245,6,245,5,123,245,1,245,6,125,245,     253P    446
7,245,3,127,245,8,245,7,129,245,9,245,8,131,245,9,245,10,133,        253P    447
245,5,245,10,135,245,2,245,11,137,245,7,245,11,139,245,12,245,8,     253P    448
141,245,12,245,13,143,245,13,245,9,145,245,10,245,14,147,245,14,     253P    449
245,6,149,245,14,245,13,151,245,11,245,12;                           253P    450
504,6,153,247,1,247,1,155,247,1,247,2,157,247,2,247,2,159,247,3,     255P    451
247,3,161,247,3,247,4,163,247,4,247,4;                               255P    452
504,12,165,249,1,249,2,167,249,3,249,1,169,249,4,249,3,171,249,      257P    453
2,249,4,173,249,3,249,5,175,249,5,249,6,177,249,6,249,4,179,249,     257P    454
7,249,1,181,249,7,249,5,183,249,2,249,8,185,249,8,249,7,187,249,     257P    455
6,249,8;                                                             257P    456
504,6,189,251,1,251,2,191,251,2,251,1,193,251,3,251,4,195,251,4,     259P    457
251,3,197,251,5,251,4,199,251,2,251,6;                               259P    458
406,1,8HKörper3;                                                    261P    459
406,1,8HKörper4;                                                    263P    460
406,1,8HKörper6;                                                    265P    461
406,1,8HKörper7;                                                    267P    462
314,62.7450980392157,62.7450980392157,62.7450980392157,17HStahl      269P    463
- satiniert;                                                         269P    464
S      1G      3D    270P    464                                        T      1
