                                                                        S      1
,,11HWindex-Base,11HWindex-Base,7Hunknown,7Hunknown,32,38,7,99,15,,1.,2,G      1
2HMM,1,0.08,15H20210906.181324,0.01,10000.,6Hdg9fdu,7Hunknown,11,0,15H20G      2
210115.103152;                                                          G      3
     186       1                                                00000000D      1
     186             -97       1       0                               0D      2
     514       2                                                00010000D      3
     514                       1       1                               0D      4
     510       3                                                00010000D      5
     510             -97       1       1                               0D      6
     510       4                                                00010000D      7
     510             -97       1       1                               0D      8
     510       5                                                00010000D      9
     510             -97       1       1                               0D     10
     510       6                                                00010000D     11
     510             -97       1       1                               0D     12
     510       7                                                00010000D     13
     510             -97       1       1                               0D     14
     510       8                                                00010000D     15
     510             -97       1       1                               0D     16
     510       9                                                00010000D     17
     510             -97       1       1                               0D     18
     510      10                                                00010000D     19
     510             -97       1       1                               0D     20
     508      11                                                00010000D     21
     508                       2       1                               0D     22
     508      13                                                00010000D     23
     508                       1       1                               0D     24
     508      14                                                00010000D     25
     508                       1       1                               0D     26
     508      15                                                00010000D     27
     508                       1       1                               0D     28
     508      16                                                00010000D     29
     508                       1       1                               0D     30
     508      17                                                00010000D     31
     508                       1       1                               0D     32
     508      18                                                00010000D     33
     508                       1       1                               0D     34
     508      19                                                00010000D     35
     508                       1       1                               0D     36
     508      20                                                00010000D     37
     508                       1       1                               0D     38
     508      21                                                00010000D     39
     508                       1       1                               0D     40
     508      22                                                00010000D     41
     508                       2       1                               0D     42
     126      24                                                00010000D     43
     126       0               5       0                               0D     44
     126      29                                                00010000D     45
     126       0               3       0                               0D     46
     126      32                                                00010000D     47
     126       0               7       0                               0D     48
     126      39                                                00010000D     49
     126       0               7       0                               0D     50
     126      46                                                00010000D     51
     126       0               5       0                               0D     52
     126      51                                                00010000D     53
     126       0              10       0                               0D     54
     126      61                                                00010000D     55
     126       0               2       0                               0D     56
     126      63                                                00010000D     57
     126       0              10       0                               0D     58
     126      73                                                00010000D     59
     126       0              10       0                               0D     60
     126      83                                                00010000D     61
     126       0               2       0                               0D     62
     126      85                                                00010000D     63
     126       0              10       0                               0D     64
     126      95                                                00010000D     65
     126       0              12       0                               0D     66
     126     107                                                00010000D     67
     126       0               4       0                               0D     68
     126     111                                                00010000D     69
     126       0               5       0                               0D     70
     126     116                                                00010000D     71
     126       0               7       0                               0D     72
     126     123                                                00010000D     73
     126       0               3       0                               0D     74
     128     126                                                00010000D     75
     128       0     -97      15       0                               0D     76
     128     141                                                00010000D     77
     128       0     -97      11       0                               0D     78
     128     152                                                00010000D     79
     128       0     -97      12       0                               0D     80
     128     164                                                00010000D     81
     128       0     -97       3       0                               0D     82
     128     167                                                00010000D     83
     128       0     -97       7       0                               0D     84
     128     174                                                00010000D     85
     128       0     -97      18       0                               0D     86
     128     192                                                00010000D     87
     128       0     -97       3       0                               0D     88
     128     195                                                00010000D     89
     128       0     -97      13       0                               0D     90
     502     208                                                00010000D     91
     502                       6       1                               0D     92
     504     214                                                00010001D     93
     504                       4       1                               0D     94
     406     218                                                00000000D     95
     406                       1      15                               0D     96
     314     219                                                00000200D     97
     314                       2       0                               0D     98
186,3,1,0,0,1,95;                                                      1P      1
514,8,5,1,7,1,9,1,11,1,13,1,15,1,17,1,19,1;                            3P      2
510,75,1,1,21;                                                         5P      3
510,77,1,1,23;                                                         7P      4
510,79,1,1,25;                                                         9P      5
510,81,2,1,27,29;                                                     11P      6
510,83,2,1,31,33;                                                     13P      7
510,85,1,1,35;                                                        15P      8
510,87,2,1,37,39;                                                     17P      9
510,89,1,1,41;                                                        19P     10
508,6,0,93,1,0,0,0,93,2,1,0,0,93,3,0,0,0,93,4,0,0,0,93,2,0,0,0,       21P     11
93,5,0,0;                                                             21P     12
508,4,0,93,6,0,0,0,93,7,1,0,0,93,8,0,0,0,93,7,0,0;                    23P     13
508,4,0,93,9,0,0,0,93,10,1,0,0,93,11,0,0,0,93,10,0,0;                 25P     14
508,1,0,93,9,1,0;                                                     27P     15
508,1,0,93,6,1,0;                                                     29P     16
508,1,0,93,12,1,0;                                                    31P     17
508,1,0,93,11,1,0;                                                    33P     18
508,5,0,93,4,1,0,0,93,13,1,0,0,93,12,0,0,0,93,13,0,0,0,93,3,1,0;      35P     19
508,2,0,93,14,0,0,0,93,15,0,0;                                        37P     20
508,1,0,93,8,1,0;                                                     39P     21
508,6,0,93,14,1,0,0,93,16,1,0,0,93,5,1,0,0,93,1,1,0,0,93,16,0,0,      41P     22
0,93,15,1,0;                                                          41P     23
126,4,2,0,0,0,0,-3.14159265358979,-3.14159265358979,                  43P     24
-3.14159265358979,-1.5707963267949,-1.5707963267949,0.,0.,0.,1.,      43P     25
0.707106781186547,1.,0.707106781186547,1.,35.,                        43P     26
4.28626379701574D-15,14.,35.,35.,14.,-2.14313189850787D-15,35.,       43P     27
14.,-35.,35.,14.,-35.,0.,14.,-3.14159265358979,0.,0.,0.,0.;           43P     28
126,1,1,0,0,1,0,0.371428571428571,0.371428571428571,                  45P     29
0.452240774992748,0.452240774992748,1.,1.,35.,0.,14.,35.,0.,          45P     30
11.1715728752538,0.371428571428571,0.452240774992748,0.,0.,0.;        45P     31
126,4,2,0,0,0,0,0.,0.,0.,1.5707963267949,1.5707963267949,             47P     32
3.14159265358979,3.14159265358979,3.14159265358979,1.,                47P     33
0.707106781186547,1.,0.707106781186547,1.,-35.,0.,                    47P     34
11.1715728752538,-35.,35.,11.1715728752538,                           47P     35
-2.14313189850787D-15,35.,11.1715728752538,35.,35.,                   47P     36
11.1715728752538,35.,4.28626379701574D-15,11.1715728752538,0.,        47P     37
3.14159265358979,0.,0.,0.;                                            47P     38
126,4,2,0,0,0,0,-3.14159265358979,-3.14159265358979,                  49P     39
-3.14159265358979,-1.5707963267949,-1.5707963267949,0.,0.,0.,1.,      49P     40
0.707106781186547,1.,0.707106781186547,1.,35.,                        49P     41
-4.28626379701574D-15,11.1715728752538,35.,-35.,                      49P     42
11.1715728752538,-2.14313189850787D-15,-35.,11.1715728752538,         49P     43
-35.,-35.,11.1715728752538,-35.,0.,11.1715728752538,                  49P     44
-3.14159265358979,0.,0.,0.,0.;                                        49P     45
126,4,2,0,0,0,0,0.,0.,0.,1.5707963267949,1.5707963267949,             51P     46
3.14159265358979,3.14159265358979,3.14159265358979,1.,                51P     47
0.707106781186547,1.,0.707106781186547,1.,-35.,0.,14.,-35.,-35.,      51P     48
14.,-2.14313189850787D-15,-35.,14.,35.,-35.,14.,35.,                  51P     49
-4.28626379701574D-15,14.,0.,3.14159265358979,0.,0.,0.;               51P     50
126,8,2,0,1,0,0,-3.14159265358979,-3.14159265358979,                  53P     51
-3.14159265358979,-1.5707963267949,-1.5707963267949,0.,0.,            53P     52
1.5707963267949,1.5707963267949,3.14159265358979,                     53P     53
3.14159265358979,3.14159265358979,1.,0.707106781186548,1.,            53P     54
0.707106781186547,1.,0.707106781186547,1.,0.707106781186548,1.,       53P     55
-2.5,-3.06161699786838D-16,24.,-2.5,-2.5,24.,                         53P     56
1.53080849893419D-16,-2.5,24.,2.5,-2.5,24.,2.5,0.,24.,2.5,2.5,        53P     57
24.,1.53080849893419D-16,2.5,24.,-2.5,2.5,24.,-2.5,                   53P     58
3.06161699786838D-16,24.,-3.14159265358979,3.14159265358979,0.,       53P     59
0.,0.;                                                                53P     60
126,1,1,0,0,1,0,0.,0.,1.2,1.2,1.,1.,-2.5,0.,24.,-2.5,0.,27.,0.,       55P     61
1.2,0.,0.,0.;                                                         55P     62
126,8,2,0,1,0,0,-3.14159265358979,-3.14159265358979,                  57P     63
-3.14159265358979,-1.5707963267949,-1.5707963267949,0.,0.,            57P     64
1.5707963267949,1.5707963267949,3.14159265358979,                     57P     65
3.14159265358979,3.14159265358979,1.,0.707106781186548,1.,            57P     66
0.707106781186547,1.,0.707106781186547,1.,0.707106781186548,1.,       57P     67
-2.5,3.06161699786838D-16,27.,-2.5,2.5,27.,1.53080849893419D-16,      57P     68
2.5,27.,2.5,2.5,27.,2.5,0.,27.,2.5,-2.5,27.,                          57P     69
1.53080849893419D-16,-2.5,27.,-2.5,-2.5,27.,-2.5,                     57P     70
-3.06161699786838D-16,27.,-3.14159265358979,3.14159265358979,0.,      57P     71
0.,0.;                                                                57P     72
126,8,2,0,1,0,0,-3.14159265358979,-3.14159265358979,                  59P     73
-3.14159265358979,-1.5707963267949,-1.5707963267949,0.,0.,            59P     74
1.5707963267949,1.5707963267949,3.14159265358979,                     59P     75
3.14159265358979,3.14159265358979,1.,0.707106781186548,1.,            59P     76
0.707106781186547,1.,0.707106781186547,1.,0.707106781186548,1.,       59P     77
-5.5,6.73555739531044D-16,24.,-5.5,5.5,24.,3.36777869765522D-16,      59P     78
5.5,24.,5.5,5.5,24.,5.5,0.,24.,5.5,-5.5,24.,                          59P     79
3.36777869765522D-16,-5.5,24.,-5.5,-5.5,24.,-5.5,                     59P     80
-6.73555739531044D-16,24.,-3.14159265358979,3.14159265358979,0.,      59P     81
0.,0.;                                                                59P     82
126,1,1,0,0,1,0,-0.181818181818182,-0.181818181818182,0.,0.,1.,       61P     83
1.,-5.5,0.,24.,-5.5,0.,25.,-0.181818181818182,0.,0.,0.,0.;            61P     84
126,8,2,0,1,0,0,-3.14159265358979,-3.14159265358979,                  63P     85
-3.14159265358979,-1.5707963267949,-1.5707963267949,0.,0.,            63P     86
1.5707963267949,1.5707963267949,3.14159265358979,                     63P     87
3.14159265358979,3.14159265358979,1.,0.707106781186548,1.,            63P     88
0.707106781186547,1.,0.707106781186547,1.,0.707106781186548,1.,       63P     89
-5.5,-6.73555739531044D-16,25.,-5.5,-5.5,25.,                         63P     90
3.36777869765522D-16,-5.5,25.,5.5,-5.5,25.,5.5,0.,25.,5.5,5.5,        63P     91
25.,3.36777869765522D-16,5.5,25.,-5.5,5.5,25.,-5.5,                   63P     92
6.73555739531044D-16,25.,-3.14159265358979,3.14159265358979,0.,       63P     93
0.,0.;                                                                63P     94
126,8,2,0,1,0,0,-3.14159265358979,-3.14159265358979,                  65P     95
-3.14159265358979,-1.5707963267949,-1.5707963267949,0.,0.,            65P     96
1.5707963267949,1.5707963267949,3.14159265358979,                     65P     97
3.14159265358979,3.14159265358979,1.,0.707106781186547,1.,            65P     98
0.707106781186547,1.,0.707106781186547,1.,0.707106781186547,1.,       65P     99
-21.1715728752538,2.59276989545945D-15,25.,-21.1715728752538,         65P    100
21.1715728752538,25.,1.29638494772973D-15,21.1715728752538,25.,       65P    101
21.1715728752538,21.1715728752538,25.,21.1715728752538,0.,25.,        65P    102
21.1715728752538,-21.1715728752538,25.,1.29638494772973D-15,          65P    103
-21.1715728752538,25.,-21.1715728752538,-21.1715728752538,25.,        65P    104
-21.1715728752538,-2.59276989545945D-15,25.,-3.14159265358979,        65P    105
3.14159265358979,0.,0.,0.;                                            65P    106
126,1,1,0,0,1,0,0.0937654935767277,0.0937654935767277,                67P    107
0.595210344502473,0.595210344502473,1.,1.,-35.,0.,                    67P    108
11.1715728752538,-21.1715728752538,0.,25.,0.0937654935767277,         67P    109
0.595210344502473,0.,0.,0.;                                           67P    110
126,4,2,0,0,0,0,0.,0.,0.,1.5707963267949,1.5707963267949,             69P    111
3.14159265358979,3.14159265358979,3.14159265358979,1.,                69P    112
0.707106781186547,1.,0.707106781186548,1.,22.,0.,27.,22.,-22.,        69P    113
27.,1.34711147906209D-15,-22.,27.,-22.,-22.,27.,-22.,                 69P    114
-2.69422295812418D-15,27.,0.,3.14159265358979,0.,0.,0.;               69P    115
126,4,2,0,0,0,0,3.14159265358979,3.14159265358979,                    71P    116
3.14159265358979,4.71238898038469,4.71238898038469,                   71P    117
6.28318530717959,6.28318530717959,6.28318530717959,1.,                71P    118
0.707106781186548,1.,0.707106781186548,1.,-22.,                       71P    119
-2.69422295812418D-15,27.,-22.,22.,27.,-4.04133443718627D-15,         71P    120
22.,27.,22.,22.,27.,22.,5.38844591624836D-15,27.,                     71P    121
3.14159265358979,6.28318530717959,0.,0.,0.;                           71P    122
126,1,1,0,0,1,0,-0.616452065649811,-0.616452065649811,                73P    123
-0.145047544858779,-0.145047544858779,1.,1.,-22.,0.,27.,-35.,0.,      73P    124
14.,-0.616452065649811,-0.145047544858779,0.,0.,0.;                   73P    125
128,1,8,1,2,0,1,0,0,1,0.371428571428571,0.371428571428571,            75P    126
0.452240774992748,0.452240774992748,-3.14159265358979,                75P    127
-3.14159265358979,-3.14159265358979,-1.5707963267949,                 75P    128
-1.5707963267949,0.,0.,1.5707963267949,1.5707963267949,               75P    129
3.14159265358979,3.14159265358979,3.14159265358979,1.,1.,             75P    130
0.707106781186548,0.707106781186548,1.,1.,0.707106781186548,          75P    131
0.707106781186548,1.,1.,0.707106781186548,0.707106781186548,1.,       75P    132
1.,0.707106781186548,0.707106781186548,1.,1.,35.,0.,                  75P    133
11.1715728752538,35.,0.,14.,35.,-35.,11.1715728752538,35.,-35.,       75P    134
14.,0.,-35.,11.1715728752538,0.,-35.,14.,-35.,-35.,                   75P    135
11.1715728752538,-35.,-35.,14.,-35.,0.,11.1715728752538,-35.,0.,      75P    136
14.,-35.,35.,11.1715728752538,-35.,35.,14.,0.,35.,                    75P    137
11.1715728752538,0.,35.,14.,35.,35.,11.1715728752538,35.,35.,         75P    138
14.,35.,0.,11.1715728752538,35.,0.,14.,0.371428571428571,             75P    139
0.452240774992748,-3.14159265358979,3.14159265358979;                 75P    140
128,1,8,1,2,0,1,0,0,1,0.,0.,1.2,1.2,-3.14159265358979,                77P    141
-3.14159265358979,-3.14159265358979,-1.5707963267949,                 77P    142
-1.5707963267949,0.,0.,1.5707963267949,1.5707963267949,               77P    143
3.14159265358979,3.14159265358979,3.14159265358979,1.,1.,             77P    144
0.707106781186548,0.707106781186548,1.,1.,0.707106781186548,          77P    145
0.707106781186548,1.,1.,0.707106781186548,0.707106781186548,1.,       77P    146
1.,0.707106781186548,0.707106781186548,1.,1.,-2.5,0.,24.,-2.5,        77P    147
0.,27.,-2.5,-2.5,24.,-2.5,-2.5,27.,0.,-2.5,24.,0.,-2.5,27.,2.5,       77P    148
-2.5,24.,2.5,-2.5,27.,2.5,0.,24.,2.5,0.,27.,2.5,2.5,24.,2.5,2.5,      77P    149
27.,0.,2.5,24.,0.,2.5,27.,-2.5,2.5,24.,-2.5,2.5,27.,-2.5,0.,24.,      77P    150
-2.5,0.,27.,0.,1.2,-3.14159265358979,3.14159265358979;                77P    151
128,1,8,1,2,0,1,0,0,1,0.,0.,0.181818181818182,0.181818181818182,      79P    152
-3.14159265358979,-3.14159265358979,-3.14159265358979,                79P    153
-1.5707963267949,-1.5707963267949,0.,0.,1.5707963267949,              79P    154
1.5707963267949,3.14159265358979,3.14159265358979,                    79P    155
3.14159265358979,1.,1.,0.707106781186548,0.707106781186548,1.,        79P    156
1.,0.707106781186548,0.707106781186548,1.,1.,0.707106781186548,       79P    157
0.707106781186548,1.,1.,0.707106781186548,0.707106781186548,1.,       79P    158
1.,-5.5,0.,24.,-5.5,0.,25.,-5.5,5.5,24.,-5.5,5.5,25.,0.,5.5,24.,      79P    159
0.,5.5,25.,5.5,5.5,24.,5.5,5.5,25.,5.5,0.,24.,5.5,0.,25.,5.5,         79P    160
-5.5,24.,5.5,-5.5,25.,0.,-5.5,24.,0.,-5.5,25.,-5.5,-5.5,24.,          79P    161
-5.5,-5.5,25.,-5.5,0.,24.,-5.5,0.,25.,0.,0.181818181818182,           79P    162
-3.14159265358979,3.14159265358979;                                   79P    163
128,1,1,1,1,0,0,1,0,0,-0.551,-0.551,0.551,0.551,-0.551,-0.551,        81P    164
0.551,0.551,1.,1.,1.,1.,-5.51,5.51,24.,5.51,5.51,24.,-5.51,           81P    165
-5.51,24.,5.51,-5.51,24.,-0.551,0.551,-0.551,0.551;                   81P    166
128,1,1,1,1,0,0,1,0,0,-2.11815728752538,-2.11815728752538,            83P    167
2.11815728752538,2.11815728752538,-2.11815728752538,                  83P    168
-2.11815728752538,2.11815728752538,2.11815728752538,1.,1.,1.,1.,      83P    169
21.1815728752538,-21.1815728752538,25.,-21.1815728752538,             83P    170
-21.1815728752538,25.,21.1815728752538,21.1815728752538,25.,          83P    171
-21.1815728752538,21.1815728752538,25.,-2.11815728752538,             83P    172
2.11815728752538,-2.11815728752538,2.11815728752538;                  83P    173
128,1,8,1,2,0,1,0,0,1,0.0937654935767277,0.0937654935767277,          85P    174
0.595210344502473,0.595210344502473,-3.14159265358979,                85P    175
-3.14159265358979,-3.14159265358979,-1.5707963267949,                 85P    176
-1.5707963267949,0.,0.,1.5707963267949,1.5707963267949,               85P    177
3.14159265358979,3.14159265358979,3.14159265358979,1.,1.,             85P    178
0.707106781186548,0.707106781186548,1.,1.,0.707106781186548,          85P    179
0.707106781186548,1.,1.,0.707106781186548,0.707106781186548,1.,       85P    180
1.,0.707106781186548,0.707106781186548,1.,1.,-35.,0.,                 85P    181
11.1715728752538,-21.1715728752538,0.,25.,-35.,-35.,                  85P    182
11.1715728752538,-21.1715728752538,-21.1715728752538,25.,0.,          85P    183
-35.,11.1715728752538,0.,-21.1715728752538,25.,35.,-35.,              85P    184
11.1715728752538,21.1715728752538,-21.1715728752538,25.,35.,0.,       85P    185
11.1715728752538,21.1715728752538,0.,25.,35.,35.,                     85P    186
11.1715728752538,21.1715728752538,21.1715728752538,25.,0.,35.,        85P    187
11.1715728752538,0.,21.1715728752538,25.,-35.,35.,                    85P    188
11.1715728752538,-21.1715728752538,21.1715728752538,25.,-35.,0.,      85P    189
11.1715728752538,-21.1715728752538,0.,25.,0.0937654935767277,         85P    190
0.595210344502473,-3.14159265358979,3.14159265358979;                 85P    191
128,1,1,1,1,0,0,1,0,0,-2.201,-2.201,2.201,2.201,-2.201,-2.201,        87P    192
2.201,2.201,1.,1.,1.,1.,-22.01,-22.01,27.,22.01,-22.01,27.,           87P    193
-22.01,22.01,27.,22.01,22.01,27.,-2.201,2.201,-2.201,2.201;           87P    194
128,1,8,1,2,0,1,0,0,1,0.145047544858779,0.145047544858779,            89P    195
0.616452065649811,0.616452065649811,-3.14159265358979,                89P    196
-3.14159265358979,-3.14159265358979,-1.5707963267949,                 89P    197
-1.5707963267949,0.,0.,1.5707963267949,1.5707963267949,               89P    198
3.14159265358979,3.14159265358979,3.14159265358979,1.,1.,             89P    199
0.707106781186548,0.707106781186548,1.,1.,0.707106781186548,          89P    200
0.707106781186548,1.,1.,0.707106781186548,0.707106781186548,1.,       89P    201
1.,0.707106781186548,0.707106781186548,1.,1.,-22.,0.,27.,-35.,        89P    202
0.,14.,-22.,-22.,27.,-35.,-35.,14.,0.,-22.,27.,0.,-35.,14.,22.,       89P    203
-22.,27.,35.,-35.,14.,22.,0.,27.,35.,0.,14.,22.,22.,27.,35.,35.,      89P    204
14.,0.,22.,27.,0.,35.,14.,-22.,22.,27.,-35.,35.,14.,-22.,0.,27.,      89P    205
-35.,0.,14.,0.145047544858779,0.616452065649811,                      89P    206
-3.14159265358979,3.14159265358979;                                   89P    207
502,11,35.,4.28626379701574D-15,14.,-35.,0.,14.,35.,                  91P    208
-4.28626379701574D-15,11.1715728752538,-35.,0.,11.1715728752538,      91P    209
-2.5,3.06161699786838D-16,24.,-2.5,3.06161699786838D-16,27.,          91P    210
-5.5,6.73555739531044D-16,24.,-5.5,6.73555739531044D-16,25.,          91P    211
-21.1715728752538,2.59276989545945D-15,25.,22.,0.,27.,-22.,0.,        91P    212
27.;                                                                  91P    213
504,16,43,91,1,91,2,45,91,1,91,3,47,91,4,91,3,49,91,3,91,4,51,        93P    214
91,2,91,1,53,91,5,91,5,55,91,5,91,6,57,91,6,91,6,59,91,7,91,7,        93P    215
61,91,7,91,8,63,91,8,91,8,65,91,9,91,9,67,91,4,91,9,69,91,10,91,      93P    216
11,71,91,11,91,10,73,91,11,91,2;                                      93P    217
406,1,8HKörper1;                                                     95P    218
314,62.7450980392157,62.7450980392157,62.7450980392157,17HStahl       97P    219
- satiniert;                                                          97P    220
S      1G      3D     98P    220                                        T      1
